<?xml version="1.0" encoding="UTF-8" standalone="no"?>
<!DOCTYPE svg PUBLIC "-//W3C//DTD SVG 1.1//EN" "http://www.w3.org/Graphics/SVG/1.1/DTD/svg11.dtd">
<svg width="100%" height="100%" viewBox="0 0 1182 1182" version="1.1" xmlns="http://www.w3.org/2000/svg" xmlns:xlink="http://www.w3.org/1999/xlink" xml:space="preserve" xmlns:serif="http://www.serif.com/" style="fill-rule:evenodd;clip-rule:evenodd;stroke-linecap:round;stroke-linejoin:round;stroke-miterlimit:1.5;">
    <g transform="matrix(1.02617,0,0,1.0666,-16.5227,-80.8822)">
        <ellipse cx="591.59" cy="629.506" rx="575.489" ry="553.674" style="fill:rgb(235,235,235);"/>
    </g>
    <g transform="matrix(0.688553,0,0,0.688553,183.925,174.729)">
        <g id="driehoek" transform="matrix(2.63715,0,0,2.63715,-1542.9,-805.658)">
            <path d="M620,340.605C620,338.493 621.272,336.589 623.223,335.781C625.174,334.973 627.42,335.42 628.913,336.913C662.779,370.779 782.697,490.697 805.308,513.308C807.347,515.347 807.347,518.653 805.308,520.692C782.697,543.303 662.779,663.221 628.913,697.087C627.42,698.58 625.174,699.027 623.223,698.219C621.272,697.411 620,695.507 620,693.395L620,340.605Z" style="fill:rgb(77,77,77);stroke:rgb(77,77,77);stroke-width:6.88px;"/>
        </g>
        <g transform="matrix(0.730107,0,0,0.425733,-4068.2,1934.99)">
            <g transform="matrix(1,0,0,5.54187,4512.24,-6216.53)">
                <path d="M1217.64,340.56C1210.71,338.498 1200.47,337.916 1191.62,339.082C1182.77,340.249 1177.03,342.937 1177.03,345.913L1177.03,735.123C1177.03,737.418 1179.98,739.619 1185.22,741.242C1190.46,742.864 1197.58,743.776 1204.99,743.776C1205,743.776 1205,743.776 1205.01,743.776C1212.42,743.776 1219.54,742.864 1224.78,741.242C1230.03,739.619 1232.97,737.418 1232.97,735.123C1232.97,689.709 1232.97,395.295 1232.97,351.693C1232.97,347.492 1227.44,343.472 1217.65,340.561L1217.64,340.56Z" style="fill:rgb(77,77,77);stroke:rgb(77,77,77);stroke-width:0.83px;stroke-linecap:butt;stroke-miterlimit:2;"/>
            </g>
            <g transform="matrix(1,0,0,5.54187,4659.72,-6216.53)">
                <path d="M1217.76,384.45L1217.76,384.45C1210.81,382.382 1200.53,381.799 1191.66,382.968C1182.79,384.138 1177.03,386.834 1177.03,389.818C1177.03,445.25 1177.03,693.661 1177.03,735.123C1177.03,737.418 1179.98,739.619 1185.22,741.242C1190.46,742.864 1197.58,743.776 1204.99,743.776C1205,743.776 1205,743.776 1205.01,743.776C1212.42,743.776 1219.54,742.864 1224.78,741.242C1230.03,739.619 1232.97,737.418 1232.97,735.123C1232.97,692.867 1232.97,435.905 1232.97,395.5C1232.97,391.33 1227.48,387.34 1217.76,384.45Z" style="fill:rgb(77,77,77);stroke:rgb(77,77,77);stroke-width:0.83px;stroke-linecap:butt;stroke-miterlimit:2;"/>
            </g>
            <g transform="matrix(1,0,0,5.54187,4807.2,-6216.53)">
                <path d="M1217.76,428.306L1217.76,428.305C1210.81,426.237 1200.53,425.654 1191.66,426.824C1182.79,427.993 1177.03,430.689 1177.03,433.674C1177.03,484.574 1177.03,696.985 1177.03,735.123C1177.03,737.418 1179.98,739.619 1185.22,741.242C1190.46,742.864 1197.58,743.776 1204.99,743.776C1205,743.776 1205,743.776 1205.01,743.776C1212.42,743.776 1219.54,742.864 1224.78,741.242C1230.03,739.619 1232.97,737.418 1232.97,735.123C1232.97,696.247 1232.97,476.537 1232.97,439.356C1232.97,435.186 1227.48,431.195 1217.76,428.306Z" style="fill:rgb(77,77,77);stroke:rgb(77,77,77);stroke-width:0.83px;stroke-linecap:butt;stroke-miterlimit:2;"/>
            </g>
            <g transform="matrix(1,0,0,5.54187,4954.68,-6216.53)">
                <path d="M1217.76,472.161L1217.76,472.161C1210.81,470.093 1200.53,469.51 1191.66,470.679C1182.79,471.849 1177.03,474.545 1177.03,477.529L1177.03,735.123C1177.03,737.418 1179.98,739.619 1185.22,741.242C1190.46,742.864 1197.58,743.776 1204.99,743.776C1205,743.776 1205,743.776 1205.01,743.776C1212.42,743.776 1219.54,742.864 1224.78,741.242C1230.03,739.619 1232.97,737.418 1232.97,735.123C1232.97,699.877 1232.97,516.93 1232.97,483.212C1232.97,479.041 1227.48,475.051 1217.76,472.161Z" style="fill:rgb(77,77,77);stroke:rgb(77,77,77);stroke-width:0.83px;stroke-linecap:butt;stroke-miterlimit:2;"/>
            </g>
            <g transform="matrix(1,0,0,5.54187,5102.17,-6216.53)">
                <path d="M1217.76,516.017L1217.76,516.016C1210.81,513.949 1200.53,513.365 1191.66,514.535C1182.79,515.704 1177.03,518.401 1177.03,521.385L1177.03,735.123C1177.03,737.418 1179.98,739.619 1185.22,741.242C1190.46,742.864 1197.58,743.776 1204.99,743.776C1205,743.776 1205,743.776 1205.01,743.776C1212.42,743.776 1219.54,742.864 1224.78,741.242C1230.03,739.619 1232.97,737.418 1232.97,735.123L1232.97,527.067C1232.97,522.897 1227.48,518.906 1217.76,516.017Z" style="fill:rgb(77,77,77);stroke:rgb(77,77,77);stroke-width:0.83px;stroke-linecap:butt;stroke-miterlimit:2;"/>
            </g>
            <g transform="matrix(1,0,0,5.54187,5249.65,-6216.53)">
                <path d="M1185.56,518.001C1180.11,519.623 1177.03,521.862 1177.03,524.203L1177.03,735.123C1177.03,737.418 1179.98,739.619 1185.22,741.242C1190.46,742.864 1197.58,743.776 1204.99,743.776C1205,743.776 1205,743.776 1205.01,743.776C1212.42,743.776 1219.54,742.864 1224.78,741.242C1230.03,739.619 1232.97,737.418 1232.97,735.123C1232.97,705.086 1232.97,568.429 1232.97,524.246C1232.97,520.773 1226.27,517.636 1215.94,516.275C1205.62,514.914 1193.67,515.592 1185.57,517.999L1185.56,518.001Z" style="fill:rgb(77,77,77);stroke:rgb(77,77,77);stroke-width:0.83px;stroke-linecap:butt;stroke-miterlimit:2;"/>
            </g>
            <g transform="matrix(1,0,0,5.54187,5397.13,-6216.53)">
                <path d="M1185.56,474.146C1180.11,475.767 1177.03,478.007 1177.03,480.347C1177.03,504.564 1177.03,698.701 1177.03,735.123C1177.03,737.418 1179.98,739.619 1185.22,741.242C1190.46,742.864 1197.58,743.776 1204.99,743.776C1205,743.776 1205,743.776 1205.01,743.776C1212.42,743.776 1219.54,742.864 1224.78,741.242C1230.03,739.619 1232.97,737.418 1232.97,735.123C1232.97,701.225 1232.97,530.469 1232.97,480.39C1232.97,476.917 1226.27,473.78 1215.94,472.419C1205.62,471.058 1193.67,471.737 1185.57,474.143L1185.56,474.146Z" style="fill:rgb(77,77,77);stroke:rgb(77,77,77);stroke-width:0.83px;stroke-linecap:butt;stroke-miterlimit:2;"/>
            </g>
            <g transform="matrix(1,0,0,5.54187,5544.61,-6216.53)">
                <path d="M1185.56,430.29C1180.11,431.912 1177.03,434.151 1177.03,436.492C1177.03,463.071 1177.03,695.07 1177.03,735.123C1177.03,737.418 1179.98,739.619 1185.22,741.242C1190.46,742.864 1197.58,743.776 1204.99,743.776C1205,743.776 1205,743.776 1205.01,743.776C1212.42,743.776 1219.54,742.864 1224.78,741.242C1230.03,739.619 1232.97,737.418 1232.97,735.123C1232.97,697.662 1232.97,492.059 1232.97,436.535C1232.97,433.062 1226.27,429.925 1215.94,428.564C1205.62,427.203 1193.67,427.881 1185.57,430.287L1185.56,430.29Z" style="fill:rgb(77,77,77);stroke:rgb(77,77,77);stroke-width:0.83px;stroke-linecap:butt;stroke-miterlimit:2;"/>
            </g>
            <g transform="matrix(1,0,0,5.54187,5692.09,-6216.53)">
                <path d="M1185.56,386.435C1180.11,388.056 1177.03,390.296 1177.03,392.636C1177.03,421.415 1177.03,691.689 1177.03,735.123C1177.03,737.418 1179.98,739.619 1185.22,741.242C1190.46,742.864 1197.58,743.776 1204.99,743.776C1205,743.776 1205,743.776 1205.01,743.776C1212.42,743.776 1219.54,742.864 1224.78,741.242C1230.03,739.619 1232.97,737.418 1232.97,735.123C1232.97,618.813 1232.97,708.165 1232.97,392.679C1232.97,389.206 1226.27,386.069 1215.94,384.708C1205.62,383.347 1193.67,384.026 1185.57,386.432L1185.56,386.435Z" style="fill:rgb(77,77,77);stroke:rgb(77,77,77);stroke-width:0.83px;stroke-linecap:butt;stroke-miterlimit:2;"/>
            </g>
            <g transform="matrix(1,0,0,5.54187,5839.58,-6216.53)">
                <path d="M1185.56,342.579C1180.11,344.201 1177.03,346.44 1177.03,348.781C1177.03,379.625 1177.03,688.513 1177.03,735.123C1177.03,737.418 1179.98,739.619 1185.22,741.242C1190.46,742.864 1197.58,743.776 1204.99,743.776C1205,743.776 1205,743.776 1205.01,743.776C1212.42,743.776 1219.54,742.864 1224.78,741.242C1230.03,739.619 1232.97,737.418 1232.97,735.123L1232.97,348.824C1232.97,345.351 1226.27,342.213 1215.94,340.852C1205.62,339.492 1193.67,340.17 1185.57,342.576L1185.56,342.579Z" style="fill:rgb(77,77,77);stroke:rgb(77,77,77);stroke-width:0.83px;stroke-linecap:butt;stroke-miterlimit:2;"/>
            </g>
        </g>
    </g>
</svg>
